<svg width="18" height="19" viewBox="0 0 18 19" fill="none" xmlns="http://www.w3.org/2000/svg">
<path d="M15 17V14.75C15 12.629 15 11.5677 14.3408 10.9092C13.6823 10.25 12.621 10.25 10.5 10.25H7.5C5.379 10.25 4.31775 10.25 3.65925 10.9092C3 11.5677 3 12.629 3 14.75C3 15.449 3 15.7985 3.114 16.0737C3.18938 16.2559 3.29992 16.4213 3.43929 16.5607C3.57866 16.7001 3.74414 16.8106 3.92625 16.886C4.2015 17 4.551 17 5.25 17V10.625M7.125 10.25L9.375 17" stroke="white" stroke-width="1.125" stroke-linecap="round" stroke-linejoin="round"/>
<path d="M9 14.75H10.875C11.1734 14.75 11.4595 14.8685 11.6705 15.0795C11.8815 15.2905 12 15.5766 12 15.875C12 16.1734 11.8815 16.4595 11.6705 16.6705C11.4595 16.8815 11.1734 17 10.875 17H9.375M11.625 5.375V4.625C11.625 4.28028 11.5571 3.93894 11.4252 3.62046C11.2933 3.30198 11.0999 3.0126 10.8562 2.76884C10.6124 2.52509 10.323 2.33173 10.0045 2.19982C9.68606 2.0679 9.34472 2 9 2C8.65528 2 8.31394 2.0679 7.99546 2.19982C7.67698 2.33173 7.3876 2.52509 7.14384 2.76884C6.90009 3.0126 6.70673 3.30198 6.57482 3.62046C6.4429 3.93894 6.375 4.28028 6.375 4.625V5.375C6.375 5.71972 6.4429 6.06106 6.57482 6.37954C6.70673 6.69802 6.90009 6.9874 7.14384 7.23116C7.3876 7.47491 7.67698 7.66827 7.99546 7.80018C8.31394 7.9321 8.65528 8 9 8C9.34472 8 9.68606 7.9321 10.0045 7.80018C10.323 7.66827 10.6124 7.47491 10.8562 7.23116C11.0999 6.9874 11.2933 6.69802 11.4252 6.37954C11.5571 6.06106 11.625 5.71972 11.625 5.375Z" stroke="white" stroke-width="1.125" stroke-linecap="round" stroke-linejoin="round"/>
</svg>
