<svg width="18" height="19" viewBox="0 0 18 19" fill="none" xmlns="http://www.w3.org/2000/svg">
<path d="M9 7.25C10.4497 7.25 11.625 6.07475 11.625 4.625C11.625 3.17525 10.4497 2 9 2C7.55025 2 6.375 3.17525 6.375 4.625C6.375 6.07475 7.55025 7.25 9 7.25Z" stroke="white" stroke-width="1.5" stroke-linecap="round" stroke-linejoin="round"/>
<path d="M1.5 15.875C1.5 12.5611 4.52213 9.875 8.25 9.875" stroke="white" stroke-width="1.5" stroke-linecap="round" stroke-linejoin="round"/>
<path d="M12.75 16.625C14.614 16.625 16.125 15.114 16.125 13.25C16.125 11.386 14.614 9.875 12.75 9.875C10.886 9.875 9.375 11.386 9.375 13.25C9.375 15.114 10.886 16.625 12.75 16.625Z" stroke="white" stroke-width="1.5"/>
<path d="M12.375 12.125V13.625H13.875" stroke="white" stroke-width="1.5" stroke-linecap="round" stroke-linejoin="round"/>
</svg>
