<svg width="18" height="19" viewBox="0 0 18 19" fill="none" xmlns="http://www.w3.org/2000/svg">
<path d="M9.0004 8V12.5M6.75041 10.25H11.2504M1.76366 10.4105C1.49891 8.687 1.36616 7.826 1.69241 7.06175C2.01791 6.29825 2.7409 5.7755 4.18615 4.73075L5.26616 3.95C7.06391 2.65025 7.96315 2 9.0004 2C10.0377 2 10.9369 2.65025 12.7347 3.95L13.8147 4.73075C15.2599 5.7755 15.9822 6.29825 16.3084 7.06175C16.6339 7.826 16.5019 8.687 16.2372 10.4098L16.0114 11.8798C15.6364 14.3218 15.4482 15.5427 14.5722 16.2717C13.6962 17.0007 12.4159 17 9.85465 17H8.1454C5.58415 17 4.30391 17 3.42791 16.2717C2.55191 15.5427 2.36441 14.3217 1.98866 11.879L1.76366 10.4105Z" stroke="white" stroke-width="1.125" stroke-linecap="round" stroke-linejoin="round"/>
</svg>
