<svg width="18" height="19" viewBox="0 0 18 19" fill="none" xmlns="http://www.w3.org/2000/svg">
<path d="M5.25 14.75H9.75C11.871 14.75 12.9323 14.75 13.5908 14.0908C14.25 13.4323 14.25 12.371 14.25 10.25V8M14.25 8C14.775 8 15.7568 9.4955 16.125 9.875M14.25 8C13.725 8 12.7432 9.4955 12.375 9.875M3.75 5.75V13.25" stroke="white" stroke-width="1.125" stroke-linecap="round" stroke-linejoin="round"/>
<path d="M3.75 5.75C4.57843 5.75 5.25 5.07843 5.25 4.25C5.25 3.42157 4.57843 2.75 3.75 2.75C2.92157 2.75 2.25 3.42157 2.25 4.25C2.25 5.07843 2.92157 5.75 3.75 5.75Z" stroke="white" stroke-width="1.125" stroke-linecap="round" stroke-linejoin="round"/>
<path d="M14.25 5.75C15.0784 5.75 15.75 5.07843 15.75 4.25C15.75 3.42157 15.0784 2.75 14.25 2.75C13.4216 2.75 12.75 3.42157 12.75 4.25C12.75 5.07843 13.4216 5.75 14.25 5.75Z" stroke="white" stroke-width="1.125" stroke-linecap="round" stroke-linejoin="round"/>
<path d="M3.75 16.25C4.57843 16.25 5.25 15.5784 5.25 14.75C5.25 13.9216 4.57843 13.25 3.75 13.25C2.92157 13.25 2.25 13.9216 2.25 14.75C2.25 15.5784 2.92157 16.25 3.75 16.25Z" stroke="white" stroke-width="1.125" stroke-linecap="round" stroke-linejoin="round"/>
</svg>
