<svg width="18" height="19" viewBox="0 0 18 19" fill="none" xmlns="http://www.w3.org/2000/svg">
<path d="M15 17V14.75C15 12.629 15 11.5677 14.3408 10.9092C13.6823 10.25 12.621 10.25 10.5 10.25L9 11.75L7.5 10.25C5.379 10.25 4.31775 10.25 3.65925 10.9092C3 11.5677 3 12.629 3 14.75V17M12 10.25V14.375" stroke="#3F3F46" stroke-linecap="round" stroke-linejoin="round"/>
<path d="M6.375 10.25V13.25M6.375 13.25C6.77282 13.25 7.15436 13.408 7.43566 13.6893C7.71696 13.9706 7.875 14.3522 7.875 14.75V15.5M6.375 13.25C5.97718 13.25 5.59564 13.408 5.31434 13.6893C5.03304 13.9706 4.875 14.3522 4.875 14.75V15.5M11.625 5.375V4.625C11.625 4.28028 11.5571 3.93894 11.4252 3.62046C11.2933 3.30198 11.0999 3.0126 10.8562 2.76884C10.6124 2.52509 10.323 2.33173 10.0045 2.19982C9.68606 2.0679 9.34472 2 9 2C8.65528 2 8.31394 2.0679 7.99546 2.19982C7.67698 2.33173 7.3876 2.52509 7.14384 2.76884C6.90009 3.0126 6.70673 3.30198 6.57482 3.62046C6.4429 3.93894 6.375 4.28028 6.375 4.625V5.375C6.375 5.71972 6.4429 6.06106 6.57482 6.37954C6.70673 6.69802 6.90009 6.9874 7.14384 7.23116C7.3876 7.47491 7.67698 7.66827 7.99546 7.80018C8.31394 7.9321 8.65528 8 9 8C9.34472 8 9.68606 7.9321 10.0045 7.80018C10.323 7.66827 10.6124 7.47491 10.8562 7.23116C11.0999 6.9874 11.2933 6.69802 11.4252 6.37954C11.5571 6.06106 11.625 5.71972 11.625 5.375ZM12.5625 14.9375C12.5625 15.0867 12.5032 15.2298 12.3977 15.3352C12.2923 15.4407 12.1492 15.5 12 15.5C11.8508 15.5 11.7077 15.4407 11.6023 15.3352C11.4968 15.2298 11.4375 15.0867 11.4375 14.9375C11.4375 14.7883 11.4968 14.6452 11.6023 14.5398C11.7077 14.4343 11.8508 14.375 12 14.375C12.1492 14.375 12.2923 14.4343 12.3977 14.5398C12.5032 14.6452 12.5625 14.7883 12.5625 14.9375Z" stroke="#3F3F46" stroke-linecap="round" stroke-linejoin="round"/>
</svg>
