<svg width="18" height="19" viewBox="0 0 18 19" fill="none" xmlns="http://www.w3.org/2000/svg">
<path d="M6.41775 10.625H3.5115C3.12645 10.6272 2.7579 10.7817 2.4864 11.0547C2.21489 11.3278 2.06249 11.6972 2.0625 12.0823V14.9885C2.0623 15.1788 2.09965 15.3674 2.1724 15.5432C2.24515 15.7191 2.35187 15.8789 2.48646 16.0135C2.62105 16.1481 2.78087 16.2549 2.95676 16.3276C3.13265 16.4004 3.32116 16.4377 3.5115 16.4375H6.41775C6.80286 16.4379 7.17243 16.2856 7.44544 16.014C7.71846 15.7424 7.87266 15.3736 7.87425 14.9885V12.0823C7.87445 11.8909 7.83691 11.7014 7.76378 11.5246C7.69066 11.3478 7.58338 11.1872 7.44809 11.0519C7.3128 10.9166 7.15216 10.8093 6.97536 10.7362C6.79856 10.6631 6.60908 10.6256 6.41775 10.6258M6.41775 2.5625H3.5115C3.32116 2.5623 3.13265 2.59965 2.95676 2.6724C2.78087 2.74515 2.62105 2.85187 2.48646 2.98646C2.35187 3.12105 2.24515 3.28087 2.1724 3.45676C2.09965 3.63265 2.0623 3.82116 2.0625 4.0115V6.91775C2.0621 7.30286 2.2144 7.67243 2.48601 7.94544C2.75762 8.21846 3.12639 8.37266 3.5115 8.37425H6.41775C6.60908 8.37445 6.79856 8.33691 6.97536 8.26378C7.15216 8.19066 7.3128 8.08338 7.44809 7.94809C7.58338 7.8128 7.69066 7.65216 7.76378 7.47536C7.83691 7.29856 7.87445 7.10908 7.87425 6.91775V4.0115C7.87266 3.62639 7.71846 3.25762 7.44544 2.98601C7.17243 2.7144 6.80286 2.5621 6.41775 2.5625ZM14.4885 2.5625H11.5823C11.1971 2.5621 10.8276 2.7144 10.5546 2.98601C10.2815 3.25762 10.1273 3.62639 10.1258 4.0115V6.91775C10.1259 7.30398 10.2795 7.67433 10.5526 7.94743C10.8257 8.22054 11.196 8.37405 11.5823 8.37425H14.4885C14.8736 8.37266 15.2424 8.21846 15.514 7.94544C15.7856 7.67243 15.9379 7.30286 15.9375 6.91775V4.0115C15.9377 3.82116 15.9004 3.63265 15.8276 3.45676C15.7549 3.28087 15.6481 3.12105 15.5135 2.98646C15.3789 2.85187 15.2191 2.74515 15.0432 2.6724C14.8674 2.59965 14.6788 2.5623 14.4885 2.5625Z" stroke="#3F3F46" stroke-linecap="round" stroke-linejoin="round"/>
<path d="M10.7378 13.5312H15.3248" stroke="#3F3F46" stroke-miterlimit="10" stroke-linecap="round"/>
</svg>
