<svg width="36" height="35" viewBox="0 0 36 35" fill="none" xmlns="http://www.w3.org/2000/svg">
<rect width="36" height="35" rx="5" fill="#E6FFF3"/>
<path d="M24 25V22.75C24 20.629 24 19.5677 23.3408 18.9092C22.6823 18.25 21.621 18.25 19.5 18.25L18 19.75L16.5 18.25C14.379 18.25 13.3178 18.25 12.6593 18.9092C12 19.5677 12 20.629 12 22.75V25M21 20.5V22.75M22.125 21.625H19.875M20.625 13.375V12.625C20.625 12.2803 20.5571 11.9389 20.4252 11.6205C20.2933 11.302 20.0999 11.0126 19.8562 10.7688C19.6124 10.5251 19.323 10.3317 19.0045 10.1998C18.6861 10.0679 18.3447 10 18 10C17.6553 10 17.3139 10.0679 16.9955 10.1998C16.677 10.3317 16.3876 10.5251 16.1438 10.7688C15.9001 11.0126 15.7067 11.302 15.5748 11.6205C15.4429 11.9389 15.375 12.2803 15.375 12.625V13.375C15.375 13.7197 15.4429 14.0611 15.5748 14.3795C15.7067 14.698 15.9001 14.9874 16.1438 15.2312C16.3876 15.4749 16.677 15.6683 16.9955 15.8002C17.3139 15.9321 17.6553 16 18 16C18.3447 16 18.6861 15.9321 19.0045 15.8002C19.323 15.6683 19.6124 15.4749 19.8562 15.2312C20.0999 14.9874 20.2933 14.698 20.4252 14.3795C20.5571 14.0611 20.625 13.7197 20.625 13.375Z" stroke="#009952" stroke-width="1.5" stroke-linecap="round" stroke-linejoin="round"/>
</svg>
