<svg width="40" height="36" viewBox="0 0 40 36" fill="none" xmlns="http://www.w3.org/2000/svg">
<rect width="40" height="36" rx="5" fill="#E6FFF3"/>
<path d="M24.9738 13.99C23.6781 13.3425 21.9581 13 20 13C18.0419 13 16.3219 13.3425 15.0262 13.99C13.7306 14.6375 13 15.5487 13 16.5V19.5C13 20.4513 13.7387 21.3656 15.0262 22.01C16.3137 22.6544 18.0419 23 20 23C21.9581 23 23.6781 22.6575 24.9738 22.01C26.2694 21.3625 27 20.4513 27 19.5V16.5C27 15.5487 26.2613 14.6344 24.9738 13.99ZM20 14C23.915 14 26 15.4519 26 16.5C26 17.5481 23.915 19 20 19C16.085 19 14 17.5481 14 16.5C14 15.4519 16.085 14 20 14ZM19.5 19.9913V21.9913C18.3125 21.9525 17.3125 21.7775 16.5 21.5231V19.5656C17.4795 19.8266 18.4866 19.9695 19.5 19.9913ZM20.5 19.9913C21.5134 19.9695 22.5205 19.8266 23.5 19.5656V21.5225C22.6875 21.7769 21.6875 21.9519 20.5 21.9906V19.9913ZM14 19.5V18.3456C14.3147 18.6068 14.6592 18.8298 15.0262 19.01C15.1781 19.0856 15.3387 19.1569 15.5 19.2244V21.125C14.5106 20.635 14 20.0181 14 19.5ZM24.5 21.125V19.2244C24.6631 19.1569 24.8219 19.0856 24.9738 19.01C25.3408 18.8298 25.6853 18.6068 26 18.3456V19.5C26 20.0181 25.4894 20.635 24.5 21.125Z" fill="black"/>
</svg>
