<svg width="41" height="36" viewBox="0 0 41 36" fill="none" xmlns="http://www.w3.org/2000/svg">
<rect x="0.667969" width="40" height="36" rx="5" fill="#F2E6FF"/>
<path d="M25.6417 13.99C24.3461 13.3425 22.6261 13 20.668 13C18.7098 13 16.9898 13.3425 15.6942 13.99C14.3986 14.6375 13.668 15.5487 13.668 16.5V19.5C13.668 20.4513 14.4067 21.3656 15.6942 22.01C16.9817 22.6544 18.7098 23 20.668 23C22.6261 23 24.3461 22.6575 25.6417 22.01C26.9373 21.3625 27.668 20.4513 27.668 19.5V16.5C27.668 15.5487 26.9292 14.6344 25.6417 13.99ZM20.668 14C24.583 14 26.668 15.4519 26.668 16.5C26.668 17.5481 24.583 19 20.668 19C16.753 19 14.668 17.5481 14.668 16.5C14.668 15.4519 16.753 14 20.668 14ZM20.168 19.9913V21.9913C18.9805 21.9525 17.9805 21.7775 17.168 21.5231V19.5656C18.1474 19.8266 19.1546 19.9695 20.168 19.9913ZM21.168 19.9913C22.1814 19.9695 23.1885 19.8266 24.168 19.5656V21.5225C23.3555 21.7769 22.3555 21.9519 21.168 21.9906V19.9913ZM14.668 19.5V18.3456C14.9827 18.6068 15.3271 18.8298 15.6942 19.01C15.8461 19.0856 16.0067 19.1569 16.168 19.2244V21.125C15.1786 20.635 14.668 20.0181 14.668 19.5ZM25.168 21.125V19.2244C25.3311 19.1569 25.4898 19.0856 25.6417 19.01C26.0088 18.8298 26.3533 18.6068 26.668 18.3456V19.5C26.668 20.0181 26.1573 20.635 25.168 21.125Z" fill="black"/>
</svg>
