<svg width="20" height="17" viewBox="0 0 20 17" fill="none" xmlns="http://www.w3.org/2000/svg">
<path d="M13.6 4C13.6 2.5855 13.6 1.879 13.0726 1.4395C12.5452 1 11.6974 1 10 1C8.3026 1 7.4548 1 6.9274 1.4395C6.4 1.879 6.4 2.5855 6.4 4M1 10C1 7.17175 1 5.75725 2.0548 4.879C3.1096 4.00075 4.8061 4 8.2 4H11.8C15.1939 4 16.8913 4 17.9452 4.879C18.9991 5.758 19 7.17175 19 10C19 12.8282 19 14.2427 17.9452 15.121C16.8904 15.9992 15.1939 16 11.8 16H8.2C4.8061 16 3.1087 16 2.0548 15.121C1.0009 14.242 1 12.8282 1 10Z" stroke="#3F3F46"/>
<path d="M9.99922 12.4998C10.9937 12.4998 11.7992 11.9402 11.7992 11.2502C11.7992 10.5602 10.9937 10 9.99922 10C9.00472 10 8.19922 9.4405 8.19922 8.74975C8.19922 8.05975 9.00472 7.50025 9.99922 7.50025M9.99922 12.4998C9.00472 12.4998 8.19922 11.9402 8.19922 11.2502M9.99922 12.4998V13M9.99922 7.50025V7M9.99922 7.50025C10.9937 7.50025 11.7992 8.05975 11.7992 8.74975" stroke="#3F3F46" stroke-linecap="round"/>
</svg>
