<svg width="41" height="36" viewBox="0 0 41 36" fill="none" xmlns="http://www.w3.org/2000/svg">
<rect x="0.332031" width="40" height="36" rx="5" fill="#E6F6FF"/>
<path d="M25.3058 13.99C24.0102 13.3425 22.2902 13 20.332 13C18.3739 13 16.6539 13.3425 15.3583 13.99C14.0627 14.6375 13.332 15.5487 13.332 16.5V19.5C13.332 20.4513 14.0708 21.3656 15.3583 22.01C16.6458 22.6544 18.3739 23 20.332 23C22.2902 23 24.0102 22.6575 25.3058 22.01C26.6014 21.3625 27.332 20.4513 27.332 19.5V16.5C27.332 15.5487 26.5933 14.6344 25.3058 13.99ZM20.332 14C24.247 14 26.332 15.4519 26.332 16.5C26.332 17.5481 24.247 19 20.332 19C16.417 19 14.332 17.5481 14.332 16.5C14.332 15.4519 16.417 14 20.332 14ZM19.832 19.9913V21.9913C18.6445 21.9525 17.6445 21.7775 16.832 21.5231V19.5656C17.8115 19.8266 18.8186 19.9695 19.832 19.9913ZM20.832 19.9913C21.8454 19.9695 22.8526 19.8266 23.832 19.5656V21.5225C23.0195 21.7769 22.0195 21.9519 20.832 21.9906V19.9913ZM14.332 19.5V18.3456C14.6467 18.6068 14.9912 18.8298 15.3583 19.01C15.5102 19.0856 15.6708 19.1569 15.832 19.2244V21.125C14.8427 20.635 14.332 20.0181 14.332 19.5ZM24.832 21.125V19.2244C24.9952 19.1569 25.1539 19.0856 25.3058 19.01C25.6729 18.8298 26.0173 18.6068 26.332 18.3456V19.5C26.332 20.0181 25.8214 20.635 24.832 21.125Z" fill="black"/>
</svg>
