<svg width="18" height="19" viewBox="0 0 18 19" fill="none" xmlns="http://www.w3.org/2000/svg">
<path d="M15.75 5.75V14.45C15.75 15.4475 14.9475 16.25 13.95 16.25H4.05C3.0525 16.25 2.25 15.4475 2.25 14.45V5.75M6 8.75H12M1.95 2.75H16.05C16.3683 2.75 16.6735 2.87643 16.8985 3.10147C17.1236 3.32652 17.25 3.63174 17.25 3.95V4.55C17.25 4.70759 17.219 4.86363 17.1587 5.00922C17.0984 5.15481 17.01 5.2871 16.8985 5.39853C16.7871 5.50996 16.6548 5.59835 16.5092 5.65866C16.3636 5.71896 16.2076 5.75 16.05 5.75H1.95C1.63174 5.75 1.32652 5.62357 1.10147 5.39853C0.876428 5.17348 0.75 4.86826 0.75 4.55V3.95C0.75 3.79241 0.781039 3.63637 0.841345 3.49078C0.90165 3.34519 0.990042 3.2129 1.10147 3.10147C1.32652 2.87643 1.63174 2.75 1.95 2.75Z" stroke="#3F3F46" stroke-miterlimit="10" stroke-linecap="round" stroke-linejoin="round"/>
</svg>
