<svg width="18" height="19" viewBox="0 0 18 19" fill="none" xmlns="http://www.w3.org/2000/svg">
<path d="M3 17V16.25C3 14.8475 3 14.147 3.3015 13.625C3.49897 13.283 3.78299 12.999 4.125 12.8015C4.647 12.5 5.3475 12.5 6.75 12.5L9 15.5L11.25 12.5C12.6525 12.5 13.353 12.5 13.875 12.8015C14.217 12.999 14.501 13.283 14.6985 13.625C15 14.147 15 14.8475 15 16.25V17M11.9528 6.5L12.7162 3.398C12.891 2.68775 12.3622 2 11.6422 2H6.35775C5.63775 2 5.109 2.68775 5.28375 3.398L6.04725 6.5M11.9528 6.5V8C11.9528 9.65675 10.6312 11 9 11C7.36875 11 6.04725 9.65675 6.04725 8V6.5M11.9528 6.5H6.04725M9 3.5V5M9.75 4.25H8.25" stroke="#3F3F46" stroke-width="1.125" stroke-linecap="round" stroke-linejoin="round"/>
</svg>
