<svg width="16" height="15" viewBox="0 0 16 15" fill="none" xmlns="http://www.w3.org/2000/svg">
<path d="M5.41775 8.625H2.5115C2.12645 8.62718 1.7579 8.78167 1.4864 9.05472C1.21489 9.32778 1.06249 9.69719 1.0625 10.0823V12.9885C1.0623 13.1788 1.09965 13.3674 1.1724 13.5432C1.24515 13.7191 1.35187 13.8789 1.48646 14.0135C1.62105 14.1481 1.78087 14.2549 1.95676 14.3276C2.13265 14.4004 2.32116 14.4377 2.5115 14.4375H5.41775C5.80286 14.4379 6.17243 14.2856 6.44544 14.014C6.71846 13.7424 6.87266 13.3736 6.87425 12.9885V10.0823C6.87445 9.89092 6.83691 9.70144 6.76378 9.52464C6.69066 9.34784 6.58338 9.1872 6.44809 9.05191C6.3128 8.91662 6.15216 8.80934 5.97536 8.73622C5.79856 8.66309 5.60908 8.62555 5.41775 8.62575M5.41775 0.562501H2.5115C2.32116 0.562303 2.13265 0.599648 1.95676 0.672397C1.78087 0.745146 1.62105 0.851872 1.48646 0.986463C1.35187 1.12105 1.24515 1.28087 1.1724 1.45676C1.09965 1.63265 1.0623 1.82116 1.0625 2.0115V4.91775C1.0621 5.30286 1.2144 5.67243 1.48601 5.94544C1.75762 6.21846 2.12639 6.37266 2.5115 6.37425H5.41775C5.60908 6.37445 5.79856 6.33691 5.97536 6.26378C6.15216 6.19066 6.3128 6.08338 6.44809 5.94809C6.58338 5.8128 6.69066 5.65216 6.76378 5.47536C6.83691 5.29856 6.87445 5.10908 6.87425 4.91775V2.0115C6.87266 1.62639 6.71846 1.25762 6.44544 0.986007C6.17243 0.714395 5.80286 0.5621 5.41775 0.562501ZM13.4885 0.562501H10.5823C10.1971 0.5621 9.82757 0.714395 9.55456 0.986007C9.28154 1.25762 9.12734 1.62639 9.12575 2.0115V4.91775C9.12595 5.30398 9.27947 5.67433 9.55257 5.94743C9.82567 6.22054 10.196 6.37405 10.5823 6.37425H13.4885C13.8736 6.37266 14.2424 6.21846 14.514 5.94544C14.7856 5.67243 14.9379 5.30286 14.9375 4.91775V2.0115C14.9377 1.82116 14.9004 1.63265 14.8276 1.45676C14.7549 1.28087 14.6481 1.12105 14.5135 0.986463C14.3789 0.851872 14.2191 0.745146 14.0432 0.672397C13.8674 0.599648 13.6788 0.562303 13.4885 0.562501Z" stroke="white" stroke-linecap="round" stroke-linejoin="round"/>
</svg>
