<svg width="14" height="17" viewBox="0 0 14 17" fill="none" xmlns="http://www.w3.org/2000/svg">
<path d="M13 16V13.75C13 11.629 13 10.5677 12.3408 9.90925C11.6823 9.25 10.621 9.25 8.5 9.25L7 10.75L5.5 9.25C3.379 9.25 2.31775 9.25 1.65925 9.90925C1 10.5677 1 11.629 1 13.75V16M10 11.5V13.75M11.125 12.625H8.875M9.625 4.375V3.625C9.625 3.28028 9.5571 2.93894 9.42518 2.62046C9.29327 2.30198 9.09991 2.0126 8.85616 1.76884C8.6124 1.52509 8.32302 1.33173 8.00454 1.19982C7.68606 1.0679 7.34472 1 7 1C6.65528 1 6.31394 1.0679 5.99546 1.19982C5.67698 1.33173 5.3876 1.52509 5.14384 1.76884C4.90009 2.0126 4.70673 2.30198 4.57482 2.62046C4.4429 2.93894 4.375 3.28028 4.375 3.625V4.375C4.375 4.71972 4.4429 5.06106 4.57482 5.37954C4.70673 5.69802 4.90009 5.9874 5.14384 6.23116C5.3876 6.47491 5.67698 6.66827 5.99546 6.80018C6.31394 6.9321 6.65528 7 7 7C7.34472 7 7.68606 6.9321 8.00454 6.80018C8.32302 6.66827 8.6124 6.47491 8.85616 6.23116C9.09991 5.9874 9.29327 5.69802 9.42518 5.37954C9.5571 5.06106 9.625 4.71972 9.625 4.375Z" stroke="#3F3F46" stroke-linecap="round" stroke-linejoin="round"/>
</svg>
