<svg width="18" height="19" viewBox="0 0 18 19" fill="none" xmlns="http://www.w3.org/2000/svg">
<path d="M10.4648 4.13C11.385 3.21125 11.8447 2.75 12.417 2.75C12.9885 2.75 13.449 3.2105 14.3693 4.13C15.2895 5.05175 15.75 5.51225 15.75 6.08375C15.75 6.656 15.2895 7.11575 14.37 8.036M7.536 14.87C6.615 15.7895 6.15525 16.25 5.58225 16.25C5.01075 16.25 4.55025 15.7895 3.63 14.87C2.7105 13.9482 2.25 13.4878 2.25 12.9163C2.25 12.344 2.7105 11.8843 3.63 10.9633M5.09475 9.5L3.63075 8.03525C2.7105 7.115 2.25 6.656 2.25 6.08375C2.25 5.5115 2.7105 5.05175 3.63 4.1315C4.55175 3.2105 5.01225 2.75 5.58375 2.75C6.156 2.75 6.61575 3.2105 7.536 4.13L9 5.5955M5.09475 9.5L9 5.5955M5.09475 9.5L9 13.4053L12.9053 9.5M9 5.5955L12.9053 9.5M12.9053 9.5L14.3693 10.9648C15.2895 11.885 15.75 12.3447 15.75 12.917C15.75 13.4885 15.2895 13.949 14.37 14.8693C13.4482 15.7895 12.9878 16.25 12.4163 16.25C11.844 16.25 11.3843 15.7895 10.4633 14.87L9 13.4045" stroke="#3F3F46" stroke-width="1.5" stroke-linecap="round" stroke-linejoin="round"/>
</svg>
