<svg width="14" height="17" viewBox="0 0 14 17" fill="none" xmlns="http://www.w3.org/2000/svg">
<path fill-rule="evenodd" clip-rule="evenodd" d="M7.00004 0.4375C6.05521 0.4375 5.14907 0.812834 4.48097 1.48093C3.81288 2.14903 3.43754 3.05517 3.43754 4C3.43754 4.94483 3.81288 5.85097 4.48097 6.51907C5.14907 7.18717 6.05521 7.5625 7.00004 7.5625C7.94488 7.5625 8.85101 7.18717 9.51911 6.51907C10.1872 5.85097 10.5625 4.94483 10.5625 4C10.5625 3.05517 10.1872 2.14903 9.51911 1.48093C8.85101 0.812834 7.94488 0.4375 7.00004 0.4375ZM4.56254 4C4.56254 3.35353 4.81935 2.73355 5.27647 2.27643C5.73359 1.81931 6.35358 1.5625 7.00004 1.5625C7.64651 1.5625 8.26649 1.81931 8.72361 2.27643C9.18073 2.73355 9.43754 3.35353 9.43754 4C9.43754 4.64647 9.18073 5.26645 8.72361 5.72357C8.26649 6.18069 7.64651 6.4375 7.00004 6.4375C6.35358 6.4375 5.73359 6.18069 5.27647 5.72357C4.81935 5.26645 4.56254 4.64647 4.56254 4ZM7.00004 8.6875C5.26529 8.6875 3.66629 9.082 2.48204 9.748C1.31504 10.405 0.437542 11.3995 0.437542 12.625V12.7015C0.436792 13.573 0.436042 14.6665 1.39529 15.448C1.86704 15.832 2.52779 16.1058 3.42029 16.2858C4.31429 16.4673 5.48054 16.5625 7.00004 16.5625C8.51954 16.5625 9.68504 16.4673 10.5805 16.2858C11.473 16.1058 12.133 15.832 12.6055 15.448C13.5648 14.6665 13.5633 13.573 13.5625 12.7015V12.625C13.5625 11.3995 12.685 10.405 11.5188 9.748C10.3338 9.082 8.73554 8.6875 7.00004 8.6875ZM1.56254 12.625C1.56254 11.9867 2.02904 11.2937 3.03329 10.729C4.02029 10.174 5.42129 9.8125 7.00079 9.8125C8.57879 9.8125 9.97979 10.174 10.9668 10.729C11.9718 11.2937 12.4375 11.9867 12.4375 12.625C12.4375 13.606 12.4075 14.158 11.8945 14.575C11.617 14.8015 11.152 15.0227 10.357 15.1832C9.56429 15.3437 8.48054 15.4375 7.00004 15.4375C5.51954 15.4375 4.43504 15.3437 3.64304 15.1832C2.84804 15.0227 2.38304 14.8015 2.10554 14.5758C1.59254 14.158 1.56254 13.606 1.56254 12.625Z" fill="#3F3F46"/>
</svg>
