<svg width="20" height="20" viewBox="0 0 20 20" fill="none" xmlns="http://www.w3.org/2000/svg">
<path d="M6.24996 3.33317C6.7102 3.33317 7.08329 2.96007 7.08329 2.49984C7.08329 2.0396 6.7102 1.6665 6.24996 1.6665H4.99996C3.15901 1.6665 1.66663 3.15889 1.66663 4.99984V14.9998C1.66663 16.8408 3.15901 18.3332 4.99996 18.3332H6.24996C6.7102 18.3332 7.08329 17.9601 7.08329 17.4998C7.08329 17.0396 6.7102 16.6665 6.24996 16.6665H4.99996C4.07949 16.6665 3.33329 15.9203 3.33329 14.9998L3.33329 4.99984C3.33329 4.07936 4.07949 3.33317 4.99996 3.33317H6.24996Z" fill="white"/>
<path d="M18.9225 10.5891C19.248 10.2637 19.248 9.73602 18.9225 9.41058L15.5892 6.07725C15.2638 5.75181 14.7361 5.75181 14.4107 6.07725C14.0853 6.40269 14.0853 6.93032 14.4107 7.25576L16.3214 9.1665L6.66663 9.1665C6.20639 9.1665 5.83329 9.5396 5.83329 9.99984C5.83329 10.4601 6.20639 10.8332 6.66663 10.8332L16.3214 10.8332L14.4107 12.7439C14.0853 13.0694 14.0853 13.597 14.4107 13.9224C14.7361 14.2479 15.2638 14.2479 15.5892 13.9224L18.9225 10.5891Z" fill="white"/>
</svg>
