<svg width="42" height="39" viewBox="0 0 42 39" fill="none" xmlns="http://www.w3.org/2000/svg">
<rect y="0.5" width="42" height="38" rx="5" fill="#E6F6FF"/>
<path d="M27 27V24.75C27 22.629 27 21.5677 26.3408 20.9092C25.6823 20.25 24.621 20.25 22.5 20.25L21 21.75L19.5 20.25C17.379 20.25 16.3178 20.25 15.6593 20.9092C15 21.5677 15 22.629 15 24.75V27M24 20.25V24.375" stroke="#3354F4" stroke-linecap="round" stroke-linejoin="round"/>
<path d="M18.375 20.25V23.25M18.375 23.25C18.7728 23.25 19.1544 23.408 19.4357 23.6893C19.717 23.9706 19.875 24.3522 19.875 24.75V25.5M18.375 23.25C17.9772 23.25 17.5956 23.408 17.3143 23.6893C17.033 23.9706 16.875 24.3522 16.875 24.75V25.5M23.625 15.375V14.625C23.625 14.2803 23.5571 13.9389 23.4252 13.6205C23.2933 13.302 23.0999 13.0126 22.8562 12.7688C22.6124 12.5251 22.323 12.3317 22.0045 12.1998C21.6861 12.0679 21.3447 12 21 12C20.6553 12 20.3139 12.0679 19.9955 12.1998C19.677 12.3317 19.3876 12.5251 19.1438 12.7688C18.9001 13.0126 18.7067 13.302 18.5748 13.6205C18.4429 13.9389 18.375 14.2803 18.375 14.625V15.375C18.375 15.7197 18.4429 16.0611 18.5748 16.3795C18.7067 16.698 18.9001 16.9874 19.1438 17.2312C19.3876 17.4749 19.677 17.6683 19.9955 17.8002C20.3139 17.9321 20.6553 18 21 18C21.3447 18 21.6861 17.9321 22.0045 17.8002C22.323 17.6683 22.6124 17.4749 22.8562 17.2312C23.0999 16.9874 23.2933 16.698 23.4252 16.3795C23.5571 16.0611 23.625 15.7197 23.625 15.375ZM24.5625 24.9375C24.5625 25.0867 24.5032 25.2298 24.3977 25.3352C24.2923 25.4407 24.1492 25.5 24 25.5C23.8508 25.5 23.7077 25.4407 23.6023 25.3352C23.4968 25.2298 23.4375 25.0867 23.4375 24.9375C23.4375 24.7883 23.4968 24.6452 23.6023 24.5398C23.7077 24.4343 23.8508 24.375 24 24.375C24.1492 24.375 24.2923 24.4343 24.3977 24.5398C24.5032 24.6452 24.5625 24.7883 24.5625 24.9375Z" stroke="#3354F4" stroke-linecap="round" stroke-linejoin="round"/>
</svg>
