<svg width="42" height="39" viewBox="0 0 42 39" fill="none" xmlns="http://www.w3.org/2000/svg">
<rect y="0.5" width="42" height="38" rx="5" fill="#FFE6F4"/>
<path d="M27.75 15.75V24.45C27.75 25.4475 26.9475 26.25 25.95 26.25H16.05C15.0525 26.25 14.25 25.4475 14.25 24.45V15.75M18 18.75H24M13.95 12.75H28.05C28.3683 12.75 28.6735 12.8764 28.8985 13.1015C29.1236 13.3265 29.25 13.6317 29.25 13.95V14.55C29.25 14.7076 29.219 14.8636 29.1587 15.0092C29.0984 15.1548 29.01 15.2871 28.8985 15.3985C28.7871 15.51 28.6548 15.5983 28.5092 15.6587C28.3636 15.719 28.2076 15.75 28.05 15.75H13.95C13.6317 15.75 13.3265 15.6236 13.1015 15.3985C12.8764 15.1735 12.75 14.8683 12.75 14.55V13.95C12.75 13.7924 12.781 13.6364 12.8413 13.4908C12.9017 13.3452 12.99 13.2129 13.1015 13.1015C13.3265 12.8764 13.6317 12.75 13.95 12.75Z" stroke="#C94EE2" stroke-miterlimit="10" stroke-linecap="round" stroke-linejoin="round"/>
</svg>
