<svg width="42" height="39" viewBox="0 0 42 39" fill="none" xmlns="http://www.w3.org/2000/svg">
<rect y="0.5" width="42" height="38" rx="5" fill="#F2E6FF"/>
<g clip-path="url(#clip0_81_680)">
<path d="M13.9302 13.0711C13.5893 13.0711 13.2622 13.2066 13.0211 13.4477C12.78 13.6888 12.6445 14.0159 12.6445 14.3569V26.5711C12.6445 26.9121 12.78 27.2392 13.0211 27.4803C13.2622 27.7214 13.5893 27.8569 13.9302 27.8569H28.0731C28.4141 27.8569 28.7411 27.7214 28.9822 27.4803C29.2234 27.2392 29.3588 26.9121 29.3588 26.5711V14.3569C29.3588 14.0159 29.2234 13.6888 28.9822 13.4477C28.7411 13.2066 28.4141 13.0711 28.0731 13.0711H25.5017M16.5017 11.1426V14.9997M25.5017 11.1426V14.9997M16.5017 13.0711H22.9302" stroke="#3F1FF6" stroke-linecap="round" stroke-linejoin="round"/>
<path d="M19.9593 16.3652C19.7888 16.3652 19.6253 16.433 19.5047 16.5535C19.3842 16.6741 19.3164 16.8376 19.3164 17.0081V18.8158H17.5061C17.3356 18.8158 17.1721 18.8835 17.0516 19.0041C16.931 19.1247 16.8633 19.2882 16.8633 19.4587V21.5479C16.8633 21.7184 16.931 21.882 17.0516 22.0025C17.1721 22.1231 17.3356 22.1908 17.5061 22.1908H19.3151V23.9985C19.3151 24.169 19.3829 24.3325 19.5034 24.4531C19.624 24.5736 19.7875 24.6414 19.958 24.6414H22.0473C22.1317 24.6414 22.2153 24.6247 22.2933 24.5924C22.3713 24.5601 22.4422 24.5128 22.5018 24.4531C22.5615 24.3934 22.6089 24.3225 22.6412 24.2445C22.6735 24.1665 22.6901 24.0829 22.6901 23.9985V22.1908H24.4979C24.6683 22.1908 24.8319 22.1231 24.9524 22.0025C25.073 21.882 25.1407 21.7184 25.1407 21.5479V19.4587C25.1407 19.2882 25.073 19.1247 24.9524 19.0041C24.8319 18.8835 24.6683 18.8158 24.4979 18.8158H22.6914V17.0081C22.6914 16.8376 22.6237 16.6741 22.5031 16.5535C22.3826 16.433 22.2191 16.3652 22.0486 16.3652H19.9593Z" stroke="#3F1FF6" stroke-linecap="round" stroke-linejoin="round"/>
</g>
<defs>
<clipPath id="clip0_81_680">
<rect width="18" height="18" fill="white" transform="translate(12 10.5)"/>
</clipPath>
</defs>
</svg>
