<svg width="18" height="19" viewBox="0 0 18 19" fill="none" xmlns="http://www.w3.org/2000/svg">
<path d="M6.75 2.75C7.30626 2.75 7.85003 2.91495 8.31254 3.22399C8.77505 3.53303 9.13554 3.97229 9.34841 4.4862C9.56128 5.00012 9.61698 5.56562 9.50846 6.11119C9.39994 6.65676 9.13207 7.1579 8.73874 7.55124C8.3454 7.94457 7.84426 8.21244 7.29869 8.32096C6.75312 8.42948 6.18762 8.37378 5.6737 8.16091C5.15979 7.94804 4.72053 7.58755 4.41149 7.12504C4.10245 6.66253 3.9375 6.11876 3.9375 5.5625C3.9375 4.81658 4.23382 4.10121 4.76126 3.57376C5.28871 3.04632 6.00408 2.75 6.75 2.75ZM6.75 1.625C5.97124 1.625 5.20996 1.85593 4.56244 2.28859C3.91492 2.72125 3.41024 3.3362 3.11222 4.05568C2.8142 4.77517 2.73623 5.56687 2.88816 6.33067C3.04009 7.09447 3.4151 7.79606 3.96577 8.34673C4.51644 8.8974 5.21803 9.27241 5.98183 9.42434C6.74563 9.57627 7.53733 9.4983 8.25682 9.20028C8.9763 8.90226 9.59125 8.39758 10.0239 7.75006C10.4566 7.10254 10.6875 6.34126 10.6875 5.5625C10.6875 4.51821 10.2727 3.51669 9.53423 2.77827C8.79581 2.03984 7.79429 1.625 6.75 1.625ZM12.375 17.375H11.25V14.5625C11.25 13.8166 10.9537 13.1012 10.4262 12.5738C9.89879 12.0463 9.18342 11.75 8.4375 11.75H5.0625C4.31658 11.75 3.60121 12.0463 3.07376 12.5738C2.54632 13.1012 2.25 13.8166 2.25 14.5625V17.375H1.125V14.5625C1.125 13.5182 1.53984 12.5167 2.27827 11.7783C3.01669 11.0398 4.01821 10.625 5.0625 10.625H8.4375C9.48179 10.625 10.4833 11.0398 11.2217 11.7783C11.9602 12.5167 12.375 13.5182 12.375 14.5625V17.375ZM14.0625 9.60125L12.6056 8.14437L11.8125 8.9375L14.0625 11.1875L18 7.25L17.2069 6.45687L14.0625 9.60125Z" fill="white"/>
</svg>
